<?xml version="1.0" standalone="no"?>
<!DOCTYPE svg PUBLIC "-//W3C//DTD SVG 20010904//EN"
 "http://www.w3.org/TR/2001/REC-SVG-20010904/DTD/svg10.dtd">
<svg version="1.0" xmlns="http://www.w3.org/2000/svg"
 width="512.000000pt" height="512.000000pt" viewBox="0 0 512.000000 512.000000"
 preserveAspectRatio="xMidYMid meet">
<metadata>
Created by potrace 1.14, written by Peter Selinger 2001-2017
</metadata>
<g transform="translate(0.000000,512.000000) scale(0.100000,-0.100000)"
fill="#000000" stroke="none">
<path d="M192 5099 c-71 -28 -144 -101 -171 -174 -20 -53 -21 -75 -21 -445 0
-369 1 -392 21 -444 25 -67 86 -133 154 -166 l50 -25 2322 -3 2322 -2 55 21
c67 25 133 86 166 154 l25 50 3 401 c3 388 2 403 -19 458 -28 75 -99 147 -174
175 l-56 21 -2312 -1 c-2299 0 -2312 0 -2365 -20z m4653 -211 c53 -24 55 -38
55 -408 0 -370 -2 -384 -55 -408 -38 -17 -4532 -17 -4570 0 -53 24 -55 38 -55
410 1 367 2 377 51 404 34 19 4534 21 4574 2z"/>
<path d="M226 3404 c-94 -29 -163 -91 -205 -184 -20 -45 -21 -60 -21 -1507 0
-1452 0 -1463 21 -1517 25 -67 86 -133 154 -166 l50 -25 935 -3 c1072 -3 992
-9 1091 88 41 40 62 71 78 113 l21 58 -2 1462 -3 1462 -23 47 c-32 65 -94 125
-160 156 l-57 27 -915 2 c-797 2 -921 0 -964 -13z m1852 -224 c55 -37 52 42
50 -1490 l-3 -1412 -33 -29 -32 -29 -880 0 c-660 0 -886 3 -905 12 -58 26 -55
-56 -55 1481 0 1414 0 1414 21 1441 11 14 35 30 52 35 19 6 386 9 897 8 748
-2 868 -4 888 -17z"/>
<path d="M3017 3409 c-92 -22 -174 -88 -217 -174 l-25 -50 0 -520 0 -520 27
-51 c15 -28 49 -71 76 -95 93 -84 28 -79 1069 -79 907 0 923 0 977 21 67 25
133 86 166 154 l25 50 3 503 c1 314 -1 517 -7 540 -16 58 -65 128 -118 166
-94 68 -61 66 -1049 65 -489 -1 -906 -5 -927 -10z m1805 -219 c20 -6 46 -22
58 -37 19 -25 20 -37 20 -479 0 -330 -3 -460 -12 -479 -26 -57 9 -55 -947 -55
l-881 0 -32 29 -33 29 -3 439 c-2 241 0 452 3 469 6 37 47 81 78 87 50 10
1713 7 1749 -3z"/>
<path d="M3017 1489 c-92 -22 -174 -88 -217 -174 l-25 -50 0 -520 0 -520 27
-51 c15 -28 49 -71 76 -95 93 -84 28 -79 1069 -79 907 0 923 0 977 21 67 25
133 86 166 154 l25 50 3 503 c1 314 -1 517 -7 540 -16 58 -65 128 -118 166
-94 68 -61 66 -1049 65 -489 -1 -906 -5 -927 -10z m1805 -219 c20 -6 46 -22
58 -37 19 -25 20 -37 20 -479 0 -330 -3 -460 -12 -479 -26 -57 9 -55 -947 -55
l-881 0 -32 29 -33 29 -3 439 c-2 241 0 452 3 469 6 37 47 81 78 87 50 10
1713 7 1749 -3z"/>
</g>
</svg>
