<?xml version="1.0" encoding="UTF-8" standalone="no"?>
<!DOCTYPE svg PUBLIC "-//W3C//DTD SVG 1.1//EN" "http://www.w3.org/Graphics/SVG/1.1/DTD/svg11.dtd">
<svg width="100%" height="100%" viewBox="0 0 584 584" version="1.1" xmlns="http://www.w3.org/2000/svg" xmlns:xlink="http://www.w3.org/1999/xlink" xml:space="preserve" xmlns:serif="http://www.serif.com/" style="fill-rule:evenodd;clip-rule:evenodd;stroke-linejoin:round;stroke-miterlimit:2;">
    <g transform="matrix(4.16667,0,0,4.16667,0,0)">
        <g>
            <g transform="matrix(2,0,0,2,-70.6123,-71.8707)">
                <path d="M90,100L50,100C44.477,100 40,95.523 40,90L40,50C40,44.477 44.477,40 50,40L90,40C95.523,40 100,44.477 100,50L100,90C100,95.523 95.523,100 90,100Z" style="fill:rgb(36,41,46);fill-rule:nonzero;"/>
            </g>
            <g transform="matrix(2,0,0,2,-70.6123,-71.8707)">
                <clipPath id="_clip1">
                    <path d="M90,41C94.963,41 99,45.037 99,50L99,90C99,94.963 94.963,99 90,99L50,99C45.037,99 41,94.963 41,90L41,50C41,45.037 45.037,41 50,41L90,41M90,40L50,40C44.477,40 40,44.477 40,50L40,90C40,95.523 44.477,100 50,100L90,100C95.523,100 100,95.523 100,90L100,50C100,44.477 95.523,40 90,40Z"/>
                </clipPath>
                <g clip-path="url(#_clip1)">
                    <rect x="20" y="20" width="100" height="100" style="fill:url(#_Linear2);"/>
                </g>
            </g>
            <g transform="matrix(2,0,0,2,-70.6123,-71.8707)">
                <clipPath id="_clip3">
                    <path d="M90,41C94.963,41 99,45.037 99,50L99,90C99,94.963 94.963,99 90,99L50,99C45.037,99 41,94.963 41,90L41,50C41,45.037 45.037,41 50,41L90,41M90,40L50,40C44.477,40 40,44.477 40,50L40,90C40,95.523 44.477,100 50,100L90,100C95.523,100 100,95.523 100,90L100,50C100,44.477 95.523,40 90,40Z"/>
                </clipPath>
                <g clip-path="url(#_clip3)">
                    <rect x="20" y="20" width="100" height="100" style="fill:url(#_Linear4);"/>
                </g>
            </g>
            <g transform="matrix(2,0,0,2,-70.6123,-71.8707)">
                <clipPath id="_clip5">
                    <path d="M50,99C45.038,99 41,94.962 41,90L41,50C41,45.038 45.038,41 50,41L90,41C94.962,41 99,45.038 99,50L99,90C99,94.962 94.962,99 90,99L50,99Z"/>
                </clipPath>
                <g clip-path="url(#_clip5)">
                    <circle cx="45" cy="45" r="45" style="fill:url(#_Radial6);"/>
                </g>
            </g>
            <g transform="matrix(2,0,0,2,-70.6123,-71.8707)">
                <clipPath id="_clip7">
                    <path d="M90,99.15L50,99.15C44.955,99.15 40.85,95.045 40.85,90L40.85,50C40.85,44.955 44.955,40.85 50,40.85L90,40.85C95.045,40.85 99.15,44.955 99.15,50L99.15,90C99.15,95.045 95.045,99.15 90,99.15ZM50,41.15C45.12,41.15 41.15,45.12 41.15,50L41.15,90C41.15,94.88 45.12,98.85 50,98.85L90,98.85C94.88,98.85 98.85,94.88 98.85,90L98.85,50C98.85,45.12 94.88,41.15 90,41.15L50,41.15Z"/>
                </clipPath>
                <g clip-path="url(#_clip7)">
                    <rect x="20" y="20" width="100" height="100" style="fill:url(#_Linear8);"/>
                </g>
            </g>
            <g transform="matrix(2,0,0,2,-70.6123,-71.8707)">
                <path d="M84.144,56.35L58.667,55.417L51.667,71.583L55.848,84.627L71.221,100L90,100C95.523,100 100,95.523 100,90L100,72.206L84.144,56.35Z" style="fill-opacity:0.12;fill-rule:nonzero;"/>
            </g>
            <g transform="matrix(2,0,0,2,-70.6123,-71.8707)">
                <path d="M70,50.493C58.95,50.493 50,59.443 50,70.493C50,79.343 55.725,86.818 63.675,89.468C64.675,89.643 65.05,89.043 65.05,88.518C65.05,88.043 65.025,86.468 65.025,84.793C60,85.718 58.7,83.568 58.3,82.443C58.075,81.868 57.1,80.093 56.25,79.618C55.55,79.243 54.55,78.318 56.225,78.293C57.8,78.268 58.925,79.743 59.3,80.343C61.1,83.368 63.975,82.518 65.125,81.993C65.3,80.693 65.825,79.818 66.4,79.318C61.95,78.818 57.3,77.093 57.3,69.443C57.3,67.268 58.075,65.468 59.35,64.068C59.15,63.568 58.45,61.518 59.55,58.768C59.55,58.768 61.225,58.243 65.05,60.818C66.65,60.368 68.35,60.143 70.05,60.143C71.75,60.143 73.45,60.368 75.05,60.818C78.875,58.218 80.55,58.768 80.55,58.768C81.65,61.518 80.95,63.568 80.75,64.068C82.025,65.468 82.8,67.243 82.8,69.443C82.8,77.118 78.125,78.818 73.675,79.318C74.4,79.943 75.025,81.143 75.025,83.018C75.025,85.693 75,87.843 75,88.518C75,89.043 75.375,89.668 76.375,89.468C84.516,86.72 89.998,79.086 90,70.493C90,59.443 81.05,50.493 70,50.493Z" style="fill:white;fill-rule:nonzero;"/>
            </g>
            <g transform="matrix(2,0,0,2,-70.6123,-71.8707)">
                <path d="M75,88.518C75,89.043 75.375,89.668 76.375,89.468C82.751,87.316 87.496,82.166 89.255,75.906C89.255,75.906 86.978,80.912 82.5,84.625C78.656,87.813 75,88.518 75,88.518Z" style="fill:rgb(36,41,46);fill-opacity:0.4;fill-rule:nonzero;"/>
            </g>
        </g>
    </g>
    <defs>
        <linearGradient id="_Linear2" x1="0" y1="0" x2="1" y2="0" gradientUnits="userSpaceOnUse" gradientTransform="matrix(100,100,-100,100,20,20)"><stop offset="0" style="stop-color:white;stop-opacity:0.8"/><stop offset="0.6" style="stop-color:white;stop-opacity:0"/><stop offset="1" style="stop-color:white;stop-opacity:0"/></linearGradient>
        <linearGradient id="_Linear4" x1="0" y1="0" x2="1" y2="0" gradientUnits="userSpaceOnUse" gradientTransform="matrix(100,100,-100,100,20,20)"><stop offset="0" style="stop-color:black;stop-opacity:0"/><stop offset="0.4" style="stop-color:black;stop-opacity:0"/><stop offset="1" style="stop-color:black;stop-opacity:0.2"/></linearGradient>
        <radialGradient id="_Radial6" cx="0" cy="0" r="1" gradientUnits="userSpaceOnUse" gradientTransform="matrix(45,0,0,45,45,45)"><stop offset="0" style="stop-color:white;stop-opacity:0.2"/><stop offset="1" style="stop-color:white;stop-opacity:0"/></radialGradient>
        <linearGradient id="_Linear8" x1="0" y1="0" x2="1" y2="0" gradientUnits="userSpaceOnUse" gradientTransform="matrix(100,100,-100,100,20,20)"><stop offset="0" style="stop-color:white;stop-opacity:0.8"/><stop offset="0.2" style="stop-color:white;stop-opacity:0.8"/><stop offset="0.7" style="stop-color:white;stop-opacity:0"/><stop offset="1" style="stop-color:white;stop-opacity:0"/></linearGradient>
    </defs>
</svg>
